<?xml version="1.0" standalone="no"?>
<!DOCTYPE svg PUBLIC "-//W3C//DTD SVG 1.1//EN" "http://www.w3.org/Graphics/SVG/1.1/DTD/svg11.dtd" >
<svg xmlns="http://www.w3.org/2000/svg">
<metadata></metadata>
<defs>
<font id="ltc_jefferson_gothicregular" horiz-adv-x="559" >
<font-face units-per-em="2048" ascent="1536" descent="-512" />
<missing-glyph horiz-adv-x="190" />
<glyph horiz-adv-x="2048" />
<glyph horiz-adv-x="2048" />
<glyph unicode="&#xd;" horiz-adv-x="190" />
<glyph unicode=" "  horiz-adv-x="190" />
<glyph unicode="&#x09;" horiz-adv-x="190" />
<glyph unicode="&#xa0;" horiz-adv-x="190" />
<glyph unicode="!" horiz-adv-x="221" d="M45 0v184h127v-184h-127zM45 1434h127l-29 -1055h-69z" />
<glyph unicode="&#x22;" horiz-adv-x="339" d="M2 965v184l61 285h66l-57 -285h57v-184h-127zM176 965v184l62 285h65l-57 -285h57v-184h-127z" />
<glyph unicode="#" horiz-adv-x="847" d="M4 485l31 127h153l48 209h-156l26 127h158l109 486h116l-106 -486h186l109 486h117l-107 -486h154l-25 -127h-158l-47 -209h158l-31 -127h-155l-107 -485h-119l109 485h-188l-107 -485h-119l109 485h-158zM307 612h187l47 209h-187z" />
<glyph unicode="$" d="M55 305v109h127v-92q0 -84 13.5 -147.5t58.5 -80.5v580q-33 51 -66.5 102t-60.5 107.5t-43 120t-16 137.5q0 53 9 105t30.5 94t57.5 71t89 33v57h65v-59q86 -16 130.5 -82t44.5 -170v-148h-127v76q0 57 -7.5 115.5t-40.5 85.5v-518q33 -49 66 -99.5t58.5 -107.5t42 -124 t16.5 -148q0 -57 -8.5 -113.5t-28 -104t-55 -80t-91.5 -40.5v-127h-65v125q-61 6 -100 36.5t-60.5 76.5t-30 101.5t-8.5 108.5zM184 1155q0 -74 19.5 -135.5t50.5 -114.5v426q-23 -6 -36 -28.5t-21.5 -49t-10.5 -53.5t-2 -45zM319 102q20 12 33 38t20 54.5t9 57.5t2 49 q0 74 -17.5 136.5t-46.5 119.5v-455z" />
<glyph unicode="%" horiz-adv-x="643" d="M37 889v399q0 29 5 61.5t17.5 60.5t36 46.5t60.5 18.5q35 0 57.5 -18.5t35.5 -46.5t18 -60.5t5 -61.5v-399q0 -29 -5 -61.5t-17 -60.5t-34.5 -45t-59.5 -17t-59.5 18t-36 46t-18.5 59.5t-5 60.5zM51 -20l459 1464h78l-459 -1464h-78zM123 856q0 -23 4 -43t29 -20 q23 0 26.5 20.5t3.5 42.5v467q0 23 -4 43t-26 20q-25 0 -29 -20t-4 -43v-467zM373 143v398q0 31 5 63.5t17.5 60t35 46t58.5 18.5q35 0 58.5 -18.5t37 -46t18.5 -60.5t5 -63v-398q0 -31 -5 -62.5t-17.5 -59t-36 -45t-60.5 -17.5q-35 0 -57 18.5t-35.5 46t-18.5 59.5t-5 60z M459 111q0 -23 4 -43.5t26 -20.5q25 0 29 20.5t4 43.5v467q0 23 -4 43t-29 20q-23 0 -26.5 -20.5t-3.5 -42.5v-467z" />
<glyph unicode="&#x26;" horiz-adv-x="663" d="M49 322q0 137 53.5 243.5t120.5 200.5q-31 111 -47 201t-16 157q0 61 11 117.5t36.5 102t66 72t97.5 26.5q47 0 80.5 -18.5t55 -50.5t33 -74t11.5 -87q0 -63 -20.5 -122.5t-52.5 -115.5t-70.5 -111.5t-77.5 -110.5q31 -104 72.5 -208t84.5 -204q12 68 13 147q0 47 -1 88 t-5 84h112v-94q0 -94 -14 -189t-45 -177q23 -51 43 -101.5t41 -97.5h-125q-16 37 -29 70q-35 -43 -82 -69t-106 -26q-63 0 -109.5 34t-75 86t-42 112.5t-13.5 114.5zM162 340q0 -33 6 -79t21.5 -87t44 -70.5t73.5 -29.5q35 0 67.5 27.5t57.5 74.5q-51 127 -94 245t-78 226 q-41 -70 -69.5 -145.5t-28.5 -161.5zM260 1165q0 -76 10.5 -150.5t28.5 -150.5q59 82 104.5 165t45.5 181q0 59 -24 100.5t-67 41.5q-41 0 -69.5 -54.5t-28.5 -132.5z" />
<glyph unicode="'" horiz-adv-x="165" d="M2 965v184l61 285h66l-57 -285h57v-184h-127z" />
<glyph unicode="(" horiz-adv-x="290" d="M18 176v1073q0 68 14.5 132.5t45.5 114.5t81 82t122 32v-121q-35 0 -60.5 -18.5t-42 -48t-25 -65.5t-8.5 -73v-1143q0 -37 8.5 -72.5t25 -65.5t42 -48t60.5 -18v-121q-72 0 -122 31.5t-81 82t-45.5 115t-14.5 131.5z" />
<glyph unicode=")" horiz-adv-x="290" d="M10 -63q35 0 60.5 18t42 48t24.5 65.5t8 72.5v1143q0 37 -8 73t-24.5 65.5t-42 48t-60.5 18.5v121q72 0 122 -32t81 -82t45 -114.5t14 -132.5v-1073q0 -68 -14 -132t-45 -114.5t-81 -82t-122 -31.5v121z" />
<glyph unicode="*" d="M6 1251l166 84l-166 84l64 109l155 -101l-8 185h127l-10 -185l155 101l64 -109l-166 -84l166 -84l-66 -112l-153 104l10 -188h-127l8 188l-153 -104z" />
<glyph unicode="+" horiz-adv-x="557" d="M0 686v127h215v215h127v-215h215v-127h-215v-215h-127v215h-215z" />
<glyph unicode="," horiz-adv-x="178" d="M51 0v184h127v-184l-61 -285h-66l60 285h-60z" />
<glyph unicode="-" horiz-adv-x="286" d="M0 686v127h287v-127h-287z" />
<glyph unicode="." horiz-adv-x="155" d="M29 0v184h127v-184h-127z" />
<glyph unicode="/" horiz-adv-x="606" d="M0 0l473 1434h133l-473 -1434h-133z" />
<glyph unicode="0" d="M57 340v745q0 59 7.5 123t31 117t67.5 87t116 34q74 0 117.5 -34t67 -87t31 -116.5t7.5 -123.5v-745q0 -59 -7.5 -122.5t-31 -117t-67.5 -87t-117 -33.5q-72 0 -116 33.5t-67.5 87t-31 117t-7.5 122.5zM184 305q0 -29 1 -65.5t10.5 -70.5t29 -56.5t54.5 -22.5 q37 0 56 22.5t28.5 56.5t10.5 70.5t1 65.5v815q0 29 -1 66t-10.5 70.5t-29 56t-55.5 22.5q-35 0 -54.5 -22.5t-29 -56t-10.5 -70.5t-1 -66v-815z" />
<glyph unicode="1" d="M90 1268v94q20 0 46 7t48.5 18.5t41 23.5t24.5 23h94v-1434h-127v1268h-127z" />
<glyph unicode="2" d="M61 0q0 129 22.5 232.5t57.5 193.5t75 171t75 164t57.5 172t22.5 195q0 25 -2 61t-10.5 68.5t-26 55t-47.5 22.5q-33 0 -51.5 -20.5t-27.5 -53t-12.5 -72.5t-3.5 -79v-92h-127v160q0 53 12.5 102t39 86t68.5 58.5t102 21.5q68 0 108.5 -28.5t63 -75t31 -102.5t8.5 -112 q0 -141 -48.5 -275t-105.5 -262t-105.5 -248t-48.5 -230h308v-113h-435z" />
<glyph unicode="3" d="M55 315v62h125v-74q0 -33 3 -69.5t13.5 -68.5t30 -53.5t52.5 -21.5q41 0 62 32t30.5 76t11.5 89t2 71q0 49 -4 107.5t-20.5 108t-52.5 82t-101 32.5v123q53 0 84 31.5t47 79t21.5 99.5t5.5 93q0 45 -4.5 85t-14.5 70.5t-27.5 48t-42.5 17.5q-31 0 -48 -18.5t-25 -50 t-9 -77.5t-1 -102h-123v76q0 49 10 99.5t34.5 91.5t64.5 66.5t97 25.5q66 0 106 -31t62.5 -79t30.5 -106.5t8 -115.5q0 -51 -3 -102t-15 -97.5t-38 -85t-73 -63.5q55 -23 85 -63.5t44.5 -95t16.5 -118t2 -131.5q0 -55 -8.5 -121.5t-32 -124t-67.5 -95t-115 -37.5 q-72 0 -116 30.5t-67.5 79.5t-32 108.5t-8.5 116.5z" />
<glyph unicode="4" d="M43 295v151l250 988h147v-1010h76v-129h-76v-295h-127v295h-270zM133 424h180v733z" />
<glyph unicode="5" d="M59 268v99h127v-140q0 -63 17.5 -100t66.5 -37q39 0 59.5 27.5t30 75t11.5 108.5t2 129q0 59 -1 120.5t-10.5 112t-29 82t-56.5 31.5t-56 -17.5t-36 -53.5h-125v729h394v-127h-267v-465q25 35 50.5 48t68.5 13q68 0 106 -47t56 -117.5t22.5 -153.5t4.5 -155 q0 -74 -3.5 -153.5t-25 -146.5t-66.5 -108.5t-129 -41.5q-70 0 -110.5 23.5t-63 63t-30 92t-7.5 109.5z" />
<glyph unicode="6" d="M47 319v816q0 145 56.5 228t164.5 83q68 0 109 -28.5t62.5 -75t27.5 -100.5t6 -107v-43h-125v57q0 31 -1 63.5t-9 60t-23.5 45t-46.5 17.5q-51 0 -73.5 -54t-22.5 -175v-313q43 51 131 51q92 0 139 -86t47 -248v-191q0 -68 -10 -130t-34.5 -108t-67.5 -73.5t-109 -27.5 q-68 0 -110.5 27.5t-67 73.5t-34 108.5t-9.5 129.5zM174 297q0 -31 1 -66.5t10.5 -66.5t28.5 -52.5t54 -21.5t54.5 21.5t28.5 52.5t10 66.5t1 66.5v235q0 86 -19 143.5t-75 57.5q-53 0 -94 -53v-383z" />
<glyph unicode="7" d="M82 1329v105h395v-105l-188 -1329h-127l205 1329h-285z" />
<glyph unicode="8" d="M63 287v211q0 39 5.5 77.5t18.5 73.5t39 62t67 39q-33 8 -57.5 34.5t-41 60.5t-24 70.5t-7.5 67.5v158q0 57 9.5 111.5t33 97.5t65.5 69.5t108 26.5t107.5 -26.5t65 -69.5t33 -97.5t9.5 -111.5v-158q0 -31 -7.5 -67.5t-24 -70.5t-40 -60.5t-57.5 -34.5q41 -12 66.5 -40 t39.5 -63t18.5 -73.5t4.5 -75.5v-213q0 -53 -7.5 -110.5t-31 -103.5t-65.5 -76t-111 -30q-68 0 -111 30t-65.5 77t-31 103t-8.5 112zM180 264q0 -25 2 -57.5t11.5 -62t29 -50t56.5 -20.5t57 20.5t29.5 50t11.5 62.5t2 57v199q0 27 -2 62.5t-11.5 67.5t-29.5 54.5t-57 22.5 t-56.5 -22.5t-29 -54.5t-11.5 -68t-2 -62v-199zM180 1065q0 -104 21.5 -170t77.5 -66q57 0 78.5 66t21.5 170q0 137 -21.5 203.5t-78.5 66.5q-55 0 -77 -66.5t-22 -203.5z" />
<glyph unicode="9" d="M47 915v189q0 70 10.5 131t35 108.5t67.5 75t108 27.5q68 0 111 -27.5t67.5 -75t33.5 -108.5t9 -131v-813q0 -145 -55 -228t-166 -83q-68 0 -108.5 28.5t-62 73.5t-28 100.5t-6.5 108.5v43h125v-60q0 -31 1 -63.5t9.5 -59t24 -44t45.5 -17.5q53 0 75 54.5t22 172.5v316 q-41 -53 -132 -53q-90 0 -138 87t-48 248zM174 893q0 -86 20.5 -143.5t73.5 -57.5q59 0 94 53v383q0 31 -1 67t-10 66.5t-28.5 52t-54.5 21.5t-54 -21.5t-28.5 -52t-10.5 -66.5t-1 -67v-235z" />
<glyph unicode=":" horiz-adv-x="155" d="M29 0v184h127v-184h-127zM29 840v186h127v-186h-127z" />
<glyph unicode=";" horiz-adv-x="180" d="M51 0v184h127v-184l-61 -285h-66l60 285h-60zM51 840v186h127v-186h-127z" />
<glyph unicode="&#x3c;" horiz-adv-x="335" d="M45 721l119 543h127l-121 -543l121 -547h-127z" />
<glyph unicode="=" d="M0 569v127h559v-127h-559zM0 801v127h559v-127h-559z" />
<glyph unicode="&#x3e;" horiz-adv-x="335" d="M45 176l121 545l-121 545h127l119 -545l-119 -545h-127z" />
<glyph unicode="?" horiz-adv-x="495" d="M43 1120v58q0 49 10 97t35 86t65 61.5t97 23.5q49 0 87 -20.5t63.5 -55.5t39 -80t13.5 -94q0 -82 -22.5 -147.5t-49.5 -138t-49.5 -165t-22.5 -229.5v-137h-106v137q0 115 21.5 204t48 167t48 152.5t21.5 156.5q0 66 -16.5 102.5t-75.5 36.5q-70 0 -86.5 -56t-16.5 -159 h-104zM193 0v184h126v-184h-126z" />
<glyph unicode="@" horiz-adv-x="1691" d="M330 463v500q0 96 33.5 183t97 153.5t157 106.5t211.5 40q240 0 370 -130t130 -353v-416q0 -68 -10 -126.5t-31.5 -101.5t-57.5 -66.5t-87 -23.5q-74 0 -112 48.5t-56 121.5q-45 -72 -80 -110.5t-94 -38.5q-100 0 -140 80t-40 252v264q0 68 6 129t24.5 107t51 74t83.5 28 q45 0 78 -33t54 -72v97h120v-660q0 -86 28 -126t62 -40q39 0 56.5 29t17.5 115v401q0 98 -23.5 179t-70.5 139.5t-116.5 90t-162.5 31.5q-92 0 -161.5 -31.5t-116.5 -90t-70.5 -139.5t-23.5 -179v-365q0 -98 23.5 -179t70.5 -139t116.5 -90t161.5 -32q121 0 207 57l70 -96 q-57 -35 -126 -53t-151 -18q-119 0 -212 39.5t-156.5 106.5t-97 154t-33.5 183zM748 510q0 -86 19 -114.5t54 -28.5q23 0 48.5 24.5t41.5 61.5v520q-8 27 -34.5 58.5t-55.5 31.5q-39 0 -56 -39t-17 -125v-389z" />
<glyph unicode="A" d="M27 0l190 1434h125l190 -1434h-126l-50 379h-166l-40 -379h-123zM211 494h135l-67 624z" />
<glyph unicode="B" d="M49 0v1434h154q90 0 144 -24t84 -70t39 -114.5t9 -156.5q0 -66 -6 -118t-22.5 -92t-46 -65.5t-76.5 -37.5q57 -23 90 -52.5t50 -72.5t21.5 -101.5t4.5 -136.5q0 -86 -11.5 -157.5t-43 -124t-89 -82t-147.5 -29.5h-154zM176 119h27q61 0 95 19.5t49 56t17.5 87t2.5 111.5 q0 66 -3.5 121t-18.5 95t-48 62.5t-94 22.5h-27v-575zM176 809h27q94 0 121.5 64.5t27.5 195.5q0 59 -4 104.5t-19.5 76t-45 46t-80.5 15.5h-27v-502z" />
<glyph unicode="C" d="M70 340v745q0 59 5 123t26.5 117t63.5 87t114 34q80 0 121.5 -34t62 -87t23.5 -116.5t3 -123.5v-135h-127v170q0 29 -1 66t-9 70.5t-25.5 56t-47.5 22.5q-31 0 -47.5 -22.5t-24.5 -56t-9 -70.5t-1 -66v-815q0 -29 1 -65.5t9 -70.5t24.5 -56.5t47.5 -22.5t48 22.5t25 56.5 t9 70.5t1 65.5v213h127v-178q0 -59 -5 -122.5t-26.5 -117t-63.5 -87t-115 -33.5q-72 0 -114 33.5t-63.5 87t-26.5 117t-5 122.5z" />
<glyph unicode="D" d="M57 0v1434h191q76 0 125 -27t77.5 -72t40 -101t11.5 -118v-799q0 -61 -11.5 -117.5t-40 -101.5t-77.5 -71.5t-125 -26.5h-191zM184 115h41q51 0 81 18.5t45.5 49t19.5 69.5t4 78v774q0 41 -4 79t-19.5 68.5t-45.5 49t-81 18.5h-41v-1204z" />
<glyph unicode="E" horiz-adv-x="466" d="M49 0v1434h389v-127h-262v-494h201v-127h-201v-559h262v-127h-389z" />
<glyph unicode="F" horiz-adv-x="458" d="M49 0v1434h379v-127h-252v-494h201v-127h-201v-686h-127z" />
<glyph unicode="G" horiz-adv-x="540" d="M49 340v745q0 59 7 123t31 117t68 87t115 34q74 0 117 -34t66.5 -87t31 -116.5t7.5 -123.5v-135h-127v170q0 29 -1.5 66t-10.5 70.5t-28.5 56t-54.5 22.5t-54 -22.5t-28.5 -56t-10.5 -70.5t-1 -66v-815q0 -29 1 -65.5t10.5 -70.5t29 -56.5t53.5 -22.5q31 0 49.5 21.5 t29.5 51.5t14.5 62.5t3.5 53.5v260h-107v118h232v-669h-60l-35 86q-10 -41 -41 -67.5t-86 -26.5q-72 0 -115.5 33.5t-67.5 87t-31 117t-7 122.5z" />
<glyph unicode="H" d="M57 0v1434h127v-621h191v621h127v-1434h-127v686h-191v-686h-127z" />
<glyph unicode="I" horiz-adv-x="225" d="M49 0v1434h127v-1434h-127z" />
<glyph unicode="J" horiz-adv-x="309" d="M29 0v125q37 0 58.5 1t31.5 9t12 23.5t2 46.5v1229h125v-1209q0 -49 -3 -90t-18.5 -70.5t-48 -47t-90.5 -17.5h-69z" />
<glyph unicode="K" horiz-adv-x="569" d="M49 0v1434h127v-596l201 596h127l-174 -502l190 -932h-127l-145 764l-72 -201v-563h-127z" />
<glyph unicode="L" horiz-adv-x="466" d="M49 0v1434h127v-1307h262v-127h-389z" />
<glyph unicode="M" horiz-adv-x="780" d="M49 0v1434h219l125 -887h4l111 887h223v-1434h-127v1294h-8l-160 -1294h-71l-183 1294h-6v-1294h-127z" />
<glyph unicode="N" horiz-adv-x="579" d="M49 0v1434h129l225 -904v904h125v-1434h-100l-252 1059v-1059h-127z" />
<glyph unicode="O" d="M57 340v745q0 59 7.5 123t31 117t67.5 87t116 34q74 0 117.5 -34t67 -87t31 -116.5t7.5 -123.5v-745q0 -59 -7.5 -122.5t-31 -117t-67.5 -87t-117 -33.5q-72 0 -116 33.5t-67.5 87t-31 117t-7.5 122.5zM184 305q0 -29 1 -65.5t10.5 -70.5t29 -56.5t54.5 -22.5 q37 0 56 22.5t28.5 56.5t10.5 70.5t1 65.5v815q0 29 -1 66t-10.5 70.5t-29 56t-55.5 22.5q-35 0 -54.5 -22.5t-29 -56t-10.5 -70.5t-1 -66v-815z" />
<glyph unicode="P" horiz-adv-x="516" d="M49 0v1434h135q104 0 161.5 -27t86.5 -75t35 -115.5t6 -151.5q0 -92 -4 -172t-26.5 -137.5t-73 -90t-140.5 -32.5h-53v-633h-127zM176 743h43q47 0 75 16.5t42 54.5t17 99.5t3 151.5q0 74 -3 124t-19.5 78.5t-53 41t-104.5 12.5v-578z" />
<glyph unicode="Q" horiz-adv-x="540" d="M49 340v745q0 59 7 123t31 117t68 87t115 34q74 0 117 -34t66.5 -87t31 -116.5t7.5 -123.5v-745q0 -45 -2.5 -92t-11.5 -90t-28.5 -79t-54.5 -63q23 -35 51.5 -57t45.5 -27v-125q-63 0 -122 49.5t-79 123.5h-21q-72 0 -115.5 33.5t-67.5 87t-31 117t-7 122.5zM176 305 q0 -29 1 -65.5t10.5 -70.5t29 -56.5t53.5 -22.5q35 0 54.5 22.5t28.5 56.5t10.5 70.5t1.5 65.5v815q0 29 -1.5 66t-10.5 70.5t-28.5 56t-54.5 22.5t-54 -22.5t-28.5 -56t-10.5 -70.5t-1 -66v-815z" />
<glyph unicode="R" horiz-adv-x="516" d="M49 0v1434h135q100 0 157.5 -29t86.5 -81t36 -124t7 -158q0 -53 -2 -106t-12.5 -99t-35 -85t-67.5 -66l129 -686h-125l-112 645h-70v-645h-127zM176 764h33q53 0 80.5 28.5t41 71.5t15.5 91.5t2 86.5q0 70 -3 122.5t-18.5 87t-50 52t-100.5 17.5v-557z" />
<glyph unicode="S" horiz-adv-x="518" d="M39 328v86h127v-92q0 -45 3 -87t14.5 -75t29.5 -51.5t49 -18.5q35 0 54.5 23.5t30.5 57.5t14.5 69.5t3.5 60.5q0 90 -24 160.5t-58.5 131t-75.5 117t-76 119t-58.5 138t-23.5 174.5q0 55 10.5 109.5t34 98.5t63.5 70.5t99 26.5t100 -27.5t65.5 -73t35 -102.5t10.5 -117 v-84h-127v76q0 37 -2 75t-11.5 69.5t-25.5 52t-45 20.5t-45 -23.5t-23.5 -55t-9.5 -64.5t-2 -51q0 -80 22.5 -144.5t57.5 -123t74 -115t73.5 -120t57 -140t22.5 -176.5q0 -61 -9 -123t-33.5 -110t-67.5 -78.5t-111 -30.5q-74 0 -118 32.5t-67.5 83.5t-30.5 112.5t-7 119.5z " />
<glyph unicode="T" horiz-adv-x="489" d="M29 1307v127h434v-127h-156v-1307h-125v1307h-153z" />
<glyph unicode="U" d="M57 340v1094h127v-1129q0 -29 1 -65.5t10.5 -70.5t29 -56.5t54.5 -22.5q37 0 56 22.5t28.5 56.5t10.5 70.5t1 65.5v1129h127v-1094q0 -59 -7.5 -122.5t-31 -117t-67.5 -87t-117 -33.5q-72 0 -116 33.5t-67.5 87t-31 117t-7.5 122.5z" />
<glyph unicode="V" horiz-adv-x="546" d="M27 1434h123l135 -1028l110 1028h127l-172 -1434h-127z" />
<glyph unicode="W" horiz-adv-x="800" d="M27 1434h123l92 -953l96 953h125l76 -953l112 953h125l-180 -1434h-109l-92 946l-121 -946h-94z" />
<glyph unicode="X" horiz-adv-x="536" d="M27 0l182 735l-182 699h123l118 -519l119 519h125l-182 -699l182 -735h-125l-119 557l-118 -557h-123z" />
<glyph unicode="Y" horiz-adv-x="516" d="M27 1434h116l119 -637l111 637h116l-165 -826v-608h-123v608z" />
<glyph unicode="Z" horiz-adv-x="509" d="M37 0v121l293 1186h-279v127h404v-123l-291 -1184h311v-127h-438z" />
<glyph unicode="[" horiz-adv-x="401" d="M18 -180v1794h373v-127h-246v-1540h246v-127h-373z" />
<glyph unicode="\" horiz-adv-x="606" d="M0 1434h133l473 -1434h-133z" />
<glyph unicode="]" horiz-adv-x="401" d="M10 -53h246v1540h-246v127h373v-1794h-373v127z" />
<glyph unicode="^" d="M57 813l160 621h125l160 -621h-115l-108 412l-109 -412h-113z" />
<glyph unicode="_" horiz-adv-x="714" d="M-16 0v127h749v-127h-749z" />
<glyph unicode="`" horiz-adv-x="385" d="M0 1745h164l166 -184h-107z" />
<glyph unicode="a" horiz-adv-x="552" d="M49 0v1120q0 63 5 123t26.5 105t65.5 71.5t124 26.5t124 -26.5t65.5 -71.5t27 -104.5t5.5 -123.5v-1120h-125v686h-191v-686h-127zM176 813h189v324q0 37 -1.5 72.5t-10.5 63t-28.5 45t-54.5 17.5t-54 -17.5t-28.5 -45t-10.5 -63t-1 -72.5v-324z" />
<glyph unicode="b" horiz-adv-x="540" d="M49 0v1434h154q90 0 144 -24t84 -70t39 -114.5t9 -156.5q0 -66 -6 -118t-22.5 -92t-46 -65.5t-76.5 -37.5q57 -23 90 -52.5t50 -72.5t21.5 -101.5t4.5 -136.5q0 -86 -11.5 -157.5t-43 -124t-89 -82t-147.5 -29.5h-154zM176 119h27q61 0 95 19.5t49 56t17.5 87t2.5 111.5 q0 66 -3.5 121t-18.5 95t-48 62.5t-94 22.5h-27v-575zM176 809h27q94 0 121.5 64.5t27.5 195.5q0 59 -4 104.5t-19.5 76t-45 46t-80.5 15.5h-27v-502z" />
<glyph unicode="c" d="M70 340v745q0 59 5 123t26.5 117t63.5 87t114 34q80 0 121.5 -34t62 -87t23.5 -116.5t3 -123.5v-135h-127v170q0 29 -1 66t-9 70.5t-25.5 56t-47.5 22.5q-31 0 -47.5 -22.5t-24.5 -56t-9 -70.5t-1 -66v-815q0 -29 1 -65.5t9 -70.5t24.5 -56.5t47.5 -22.5t48 22.5t25 56.5 t9 70.5t1 65.5v213h127v-178q0 -59 -5 -122.5t-26.5 -117t-63.5 -87t-115 -33.5q-72 0 -114 33.5t-63.5 87t-26.5 117t-5 122.5z" />
<glyph unicode="d" d="M57 0v1434h191q76 0 125 -27t77.5 -72t40 -101t11.5 -118v-799q0 -61 -11.5 -117.5t-40 -101.5t-77.5 -71.5t-125 -26.5h-191zM184 115h41q51 0 81 18.5t45.5 49t19.5 69.5t4 78v774q0 41 -4 79t-19.5 68.5t-45.5 49t-81 18.5h-41v-1204z" />
<glyph unicode="e" horiz-adv-x="466" d="M49 0v1434h389v-127h-262v-494h201v-127h-201v-559h262v-127h-389z" />
<glyph unicode="f" horiz-adv-x="458" d="M49 0v1434h379v-127h-252v-494h201v-127h-201v-686h-127z" />
<glyph unicode="g" horiz-adv-x="540" d="M49 340v745q0 59 7 123t31 117t68 87t115 34q74 0 117 -34t66.5 -87t31 -116.5t7.5 -123.5v-135h-127v170q0 29 -1.5 66t-10.5 70.5t-28.5 56t-54.5 22.5t-54 -22.5t-28.5 -56t-10.5 -70.5t-1 -66v-815q0 -29 1 -65.5t10.5 -70.5t29 -56.5t53.5 -22.5q31 0 49.5 21.5 t29.5 51.5t14.5 62.5t3.5 53.5v260h-107v118h232v-669h-60l-35 86q-10 -41 -41 -67.5t-86 -26.5q-72 0 -115.5 33.5t-67.5 87t-31 117t-7 122.5z" />
<glyph unicode="h" d="M57 0v1434h127v-621h191v621h127v-1434h-127v686h-191v-686h-127z" />
<glyph unicode="i" horiz-adv-x="225" d="M49 0v1434h127v-1434h-127z" />
<glyph unicode="j" horiz-adv-x="309" d="M29 0v125q37 0 58.5 1t31.5 9t12 23.5t2 46.5v1229h125v-1209q0 -49 -3 -90t-18.5 -70.5t-48 -47t-90.5 -17.5h-69z" />
<glyph unicode="k" horiz-adv-x="528" d="M49 0v1434h127v-658h29q78 0 119 45t41 135v478h127v-443q0 -41 -4.5 -82t-19.5 -74.5t-42 -60t-74 -39.5q47 -12 74 -39.5t42 -62.5t19.5 -76t4.5 -82v-475h-127v485q0 102 -33 142.5t-127 40.5h-29v-668h-127z" />
<glyph unicode="l" horiz-adv-x="466" d="M49 0v1434h127v-1307h262v-127h-389z" />
<glyph unicode="m" horiz-adv-x="860" d="M49 0v1120q0 68 7 120t30 92t65 65.5t113 40.5q41 8 83 14t83 6t82 -6t82 -14q72 -14 114 -40t64.5 -66t29.5 -92t7 -120v-1120h-125v1120q0 57 -6 101.5t-26.5 74t-59.5 45t-105 15.5v-1356h-114v1356q-70 0 -109 -16.5t-58.5 -47t-24.5 -73.5t-5 -99v-1120h-127z" />
<glyph unicode="n" horiz-adv-x="550" d="M49 0v1434h139q39 0 82 -7.5t84 -22.5t74 -42t49 -64q18 -39 21.5 -88t3.5 -96v-1114h-127v1087q0 59 -6.5 102.5t-26.5 72t-59 43t-107 14.5v-1319h-127z" />
<glyph unicode="o" horiz-adv-x="552" d="M49 340v745q0 59 7 123t31 117t68 87t115 34q74 0 118 -34t67.5 -87t31 -116.5t7.5 -123.5v-745q0 -59 -7.5 -122.5t-31 -117t-67.5 -87t-118 -33.5q-72 0 -115.5 33.5t-67.5 87t-31 117t-7 122.5zM176 305q0 -29 1 -65.5t10.5 -70.5t29 -56.5t53.5 -22.5q37 0 56.5 22.5 t29 56.5t10.5 70.5t1 65.5v815q0 29 -1 66t-10.5 70.5t-29 56t-56.5 22.5q-35 0 -54 -22.5t-28.5 -56t-10.5 -70.5t-1 -66v-815z" />
<glyph unicode="p" horiz-adv-x="516" d="M49 0v1434h135q104 0 161.5 -27t86.5 -75t35 -115.5t6 -151.5q0 -92 -4 -172t-26.5 -137.5t-73 -90t-140.5 -32.5h-53v-633h-127zM176 743h43q47 0 75 16.5t42 54.5t17 99.5t3 151.5q0 74 -3 124t-19.5 78.5t-53 41t-104.5 12.5v-578z" />
<glyph unicode="q" horiz-adv-x="540" d="M49 340v745q0 59 7 123t31 117t68 87t115 34q74 0 117 -34t66.5 -87t31 -116.5t7.5 -123.5v-745q0 -45 -2.5 -92t-11.5 -90t-28.5 -79t-54.5 -63q23 -35 51.5 -57t45.5 -27v-125q-63 0 -122 49.5t-79 123.5h-21q-72 0 -115.5 33.5t-67.5 87t-31 117t-7 122.5zM176 305 q0 -29 1 -65.5t10.5 -70.5t29 -56.5t53.5 -22.5q35 0 54.5 22.5t28.5 56.5t10.5 70.5t1.5 65.5v815q0 29 -1.5 66t-10.5 70.5t-28.5 56t-54.5 22.5t-54 -22.5t-28.5 -56t-10.5 -70.5t-1 -66v-815z" />
<glyph unicode="r" horiz-adv-x="528" d="M49 0v1434h156q90 0 146.5 -35t87 -91.5t42 -130t11.5 -153.5q0 -41 -8.5 -92t-26 -98.5t-43 -84t-62.5 -49.5q47 -12 74 -38.5t42 -61.5t19.5 -76t4.5 -82v-442h-127v465q0 86 -35 133t-113 47h-41v-645h-127zM176 756h35q49 0 78.5 24.5t47 63.5t23 87t5.5 93 q0 59 -4.5 114.5t-19.5 98.5t-44 68.5t-80 25.5q-6 0 -20.5 -1t-20.5 -3v-571z" />
<glyph unicode="s" horiz-adv-x="534" d="M49 340v152h127v-187q0 -29 1 -65.5t10.5 -70.5t29 -56.5t53.5 -22.5q35 0 54.5 22.5t28.5 56.5t10.5 70.5t1.5 65.5v361h-316v419q0 59 7 123t31 117t68 87t115 34q74 0 117 -34t66.5 -87t31 -116.5t7.5 -123.5v-124h-127v159q0 29 -1.5 66t-10.5 70.5t-28.5 56 t-54.5 22.5t-54 -22.5t-28.5 -56t-10.5 -70.5t-1 -66v-336h316v-444q0 -59 -7.5 -122.5t-31 -117t-66.5 -87t-117 -33.5q-72 0 -115.5 33.5t-67.5 87t-31 117t-7 122.5z" />
<glyph unicode="t" horiz-adv-x="489" d="M29 1307v127h434v-127h-156v-1307h-125v1307h-153z" />
<glyph unicode="u" d="M57 340v1094h127v-1129q0 -29 1 -65.5t10.5 -70.5t29 -56.5t54.5 -22.5q37 0 56 22.5t28.5 56.5t10.5 70.5t1 65.5v1129h127v-1094q0 -59 -7.5 -122.5t-31 -117t-67.5 -87t-117 -33.5q-72 0 -116 33.5t-67.5 87t-31 117t-7.5 122.5z" />
<glyph unicode="v" horiz-adv-x="546" d="M27 1434h123l135 -1028l110 1028h127l-172 -1434h-127z" />
<glyph unicode="w" horiz-adv-x="860" d="M49 313v1121h127v-1121q0 -61 4 -103t23.5 -69.5t59.5 -43t110 -21.5v1358h114v-1358q68 6 107 20.5t58.5 42t25.5 69.5t6 105v1121h125v-1121q0 -68 -7 -120t-29.5 -92t-64.5 -65.5t-114 -39.5q-41 -8 -82 -14.5t-82 -6.5t-83 6.5t-83 14.5q-72 14 -113.5 39.5 t-64.5 64.5t-30 92.5t-7 120.5z" />
<glyph unicode="x" horiz-adv-x="536" d="M27 0l182 735l-182 699h123l118 -519l119 519h125l-182 -699l182 -735h-125l-119 557l-118 -557h-123z" />
<glyph unicode="y" horiz-adv-x="516" d="M27 1434h116l119 -637l111 637h116l-165 -826v-608h-123v608z" />
<glyph unicode="z" horiz-adv-x="509" d="M37 0v121l293 1186h-279v127h404v-123l-291 -1184h311v-127h-438z" />
<glyph unicode="{" horiz-adv-x="425" d="M18 653v121q37 2 62.5 20.5t42 48t24 65.5t7.5 71v270q0 68 14 132.5t45 114.5t81 82t122 32v-121q-35 0 -60.5 -18.5t-42 -48t-24.5 -65.5t-8 -73v-270q0 -86 -24 -167t-77 -134q53 -51 77 -132t24 -167v-273q0 -37 8 -72.5t24.5 -65.5t42 -48t60.5 -18v-121 q-72 0 -122 31.5t-81 82t-45 115t-14 131.5v273q0 35 -7.5 70.5t-24 64t-42 48t-62.5 21.5z" />
<glyph unicode="|" horiz-adv-x="225" d="M49 0v1434h127v-1434h-127z" />
<glyph unicode="}" horiz-adv-x="425" d="M10 -63q35 0 60.5 18t42 48t24.5 65.5t8 72.5v273q0 86 24 167t77 132q-53 53 -77 134t-24 167v270q0 37 -8 73t-24.5 65.5t-42 48t-60.5 18.5v121q72 0 122 -32t81 -82t45 -114.5t14 -132.5v-270q0 -35 7.5 -71t23.5 -65.5t42 -48t63 -20.5v-121q-37 -2 -63 -21.5 t-42 -48t-23.5 -64.5t-7.5 -70v-273q0 -68 -14 -132t-45 -114.5t-81 -82t-122 -31.5v121z" />
<glyph unicode="~" d="M53 668q0 74 41 117.5t88 43.5q35 0 58.5 -9t43 -21.5t37 -21.5t37.5 -9q18 0 34 16.5t16 44.5h98q0 -37 -11.5 -66.5t-30 -51t-42 -32.5t-45.5 -11q-27 0 -50.5 10t-44 21.5t-41 21.5t-40.5 10q-18 0 -34.5 -17.5t-16.5 -45.5h-97z" />
<glyph unicode="&#xa1;" horiz-adv-x="221" d="M47 0l29 1055h69l29 -1055h-127zM47 1249v185h127v-185h-127z" />
<glyph unicode="&#xa2;" d="M70 340v745q0 55 5 115t22.5 111t52 88t94.5 45v57h65v-57q68 -6 105 -42t53 -88t19 -112.5t3 -116.5v-135h-127v170q0 25 -1 55.5t-6 60.5t-15 54.5t-31 36.5v-1229q20 12 30.5 37t15.5 54.5t6 60.5t1 55v213h127v-178q0 -55 -5 -115.5t-23.5 -113t-54 -88t-97.5 -41.5 v-125h-65v125q-59 8 -94 44.5t-52.5 88t-22.5 111t-5 114.5zM197 305q0 -25 1 -54.5t5 -59t13 -54t28 -37.5v1225q-18 -12 -27.5 -36.5t-13.5 -54.5t-5 -59.5t-1 -54.5v-815z" />
<glyph unicode="&#xa3;" horiz-adv-x="589" d="M29 735v107h98v237q0 57 4 122t24.5 120t63.5 92t121 37q92 0 144.5 -69.5t52.5 -182.5v-244h-123v203q0 29 -2 60.5t-10.5 58.5t-25 45t-42.5 18q-27 0 -43.5 -19.5t-24.5 -49t-10 -64.5t-2 -65v-299h141v-107h-141v-624h293v-111h-477v111h57v624h-98z" />
<glyph unicode="&#xa5;" horiz-adv-x="516" d="M27 1434h116l119 -635l111 635h116l-129 -635h115v-127h-139l-12 -64v-41h151v-127h-151v-440h-123v440h-144v127h144v41l-15 64h-129v127h103z" />
<glyph unicode="&#xa7;" horiz-adv-x="602" d="M39 807q0 78 42 129t120 68q-43 53 -82 115.5t-39 131.5q0 84 57.5 139.5t138.5 55.5q51 0 87 -17.5t64 -45t51.5 -63.5t49.5 -73l-102 -71q-10 16 -26.5 41.5t-37 49t-45 40t-49.5 16.5q-31 0 -45 -19.5t-14 -48.5q0 -45 26.5 -81.5t51.5 -71.5l194 -285 q29 -41 54.5 -86t25.5 -94q0 -35 -11 -70t-32.5 -64.5t-51.5 -48t-67 -22.5q18 -33 40 -63.5t41.5 -61.5t31.5 -65.5t12 -75.5t-16 -78t-44 -63.5t-65 -42t-77 -15.5q-45 0 -79 19.5t-61.5 49.5t-50 65.5t-45.5 68.5l102 78q10 -14 26.5 -41t35 -51.5t41 -43t45.5 -18.5 q70 0 70 70q0 18 -9.5 40.5t-24 44t-29.5 40t-26 33.5l-196 288q-35 49 -58.5 93.5t-23.5 103.5zM162 815q0 -23 23.5 -66.5t53 -88t56.5 -81t33 -44.5q6 -2 16 -3q37 0 64.5 21.5t27.5 62.5q0 25 -21.5 66t-48 83t-52 77t-35.5 47q-10 4 -20.5 6t-22.5 2q-33 0 -53.5 -25.5 t-20.5 -56.5z" />
<glyph unicode="&#xa8;" d="M57 1561v184h127v-184h-127zM375 1561v184h127v-184h-127z" />
<glyph unicode="&#xa9;" horiz-adv-x="1103" d="M29 715q0 113 31.5 241.5t96 239.5t163 183.5t233.5 72.5t233.5 -72.5t163 -183.5t96 -240t31.5 -241q0 -106 -29.5 -234.5t-92 -239t-158 -185t-226.5 -74.5q-137 0 -238.5 70.5t-169 179t-101 237.5t-33.5 246zM172 715q0 -80 19.5 -191.5t64.5 -214t117.5 -174.5 t179.5 -72q104 0 177 72t118 174.5t64.5 214t19.5 191.5q0 84 -19.5 195.5t-63.5 213t-117 172t-179 70.5q-104 0 -177 -71.5t-118 -174t-65.5 -214t-20.5 -191.5zM403 514v430q0 39 3.5 90t17.5 97.5t45 78t86 31.5q68 0 100.5 -39t44 -95t9.5 -117.5t-2 -104.5h-95 q0 14 3 59t0 93t-15 86t-43 38q-25 0 -37 -19.5t-17 -46t-5 -54v-44.5v-422q0 -51 -1 -123.5t11 -123.5q4 -16 15.5 -32.5t31.5 -16.5q31 0 44 45t16 101t0 107.5t-3 65.5h95v-115q0 -37 -4.5 -86t-19.5 -93t-44 -74.5t-80 -30.5q-59 0 -91 33.5t-46 83t-16.5 103.5t-2.5 95 z" />
<glyph unicode="&#xaa;" horiz-adv-x="270" d="M29 961v36h215v-36h-215zM29 1167q0 31 15 53.5t38.5 40t51.5 28.5t52 18v4q0 29 -7 55.5t-42 26.5q-27 0 -40 -21.5t-19 -42.5l-39 4q4 43 28.5 72t69.5 29q49 0 69.5 -29t27 -70t3 -85t-3.5 -74q0 -23 6.5 -45.5t4.5 -45.5h-45l-11 39q-16 -18 -35.5 -31.5t-46.5 -13.5 q-35 0 -56 27t-21 61zM74 1169q0 -23 12 -38t35 -15q18 0 37.5 13.5t27.5 31.5v109q-16 -6 -35.5 -14.5t-37 -20.5t-28.5 -28.5t-11 -37.5z" />
<glyph unicode="&#xab;" horiz-adv-x="567" d="M45 721l119 543h127l-121 -543l121 -547h-127zM276 721l119 543h127l-121 -543l121 -547h-127z" />
<glyph unicode="&#xad;" horiz-adv-x="286" d="M0 686v127h287v-127h-287z" />
<glyph unicode="&#xae;" horiz-adv-x="391" d="M27 1202q0 37 10 79t30.5 78t52.5 59.5t77 23.5q43 0 74.5 -23.5t52 -59.5t31 -78t10.5 -79t-10.5 -80t-31 -77.5t-52 -58t-74.5 -23.5t-75 23.5t-53.5 59t-31.5 77.5t-10 79zM72 1202q0 -27 6 -63.5t20.5 -69.5t39 -55.5t59.5 -22.5t58.5 23.5t36.5 56.5t19 69t6 62 q0 27 -6 62.5t-19 69.5t-36.5 57.5t-58.5 23.5t-59.5 -23.5t-39 -57.5t-20.5 -69.5t-6 -62.5zM143 1018v360h35q51 0 61.5 -27.5t10.5 -72.5q0 -23 -5 -44.5t-26 -37.5l33 -178h-31l-31 168h-16v-168h-31zM174 1210h8q29 0 33 23.5t4 42.5q0 31 -4 53.5t-41 22.5v-142z" />
<glyph unicode="&#xaf;" horiz-adv-x="714" d="M49 1495v72h617v-72h-617z" />
<glyph unicode="&#xb0;" horiz-adv-x="188" d="M27 1475q0 59 39 98t98 39q53 0 94 -41t41 -96q0 -57 -40 -98.5t-95 -41.5q-59 0 -98 41t-39 99zM86 1475q0 -31 22.5 -53.5t55.5 -22.5q31 0 52.5 22.5t21.5 53.5q0 33 -22.5 53t-51.5 20t-53.5 -20.5t-24.5 -52.5z" />
<glyph unicode="&#xb4;" d="M156 1561l163 184h164l-223 -184h-104z" />
<glyph unicode="&#xb6;" horiz-adv-x="765" d="M49 1065q0 84 6 151.5t35 115.5t86 75t162 27h377v-1434h-123v1313h-119v-1313h-127v633h-53q-90 0 -139.5 32.5t-73 90t-27.5 137.5t-4 172z" />
<glyph unicode="&#xb8;" d="M184 -215h64q0 -20 12 -33.5t31 -13.5q29 0 40 16.5t11 50.5q0 39 -10 54.5t-39 15.5h-39v125h63v-72q49 0 66.5 -28.5t17.5 -94.5t-29.5 -94t-80.5 -28q-35 0 -55.5 10t-31.5 25.5t-15.5 33t-4.5 33.5z" />
<glyph unicode="&#xba;" horiz-adv-x="286" d="M29 961v36h229v-36h-229zM29 1249q0 29 4 60.5t16 59.5t34.5 46.5t59.5 18.5q33 0 54.5 -15.5t35 -40t19.5 -54t6 -56.5t-5 -60.5t-18.5 -62.5t-36 -49.5t-57.5 -20.5t-57.5 16.5t-34.5 42t-16 56.5t-4 59zM78 1224q0 -26 6 -50.5t18.5 -42t36.5 -17.5q27 0 41.5 18.5 t20.5 44t7 52.5t1 45q0 16 -2 36.5t-10.5 39t-20.5 31t-35 12.5t-35 -13.5t-18 -34t-8 -42t-2 -37.5v-42z" />
<glyph unicode="&#xbb;" horiz-adv-x="567" d="M45 176l121 545l-121 545h127l119 -545l-119 -545h-127zM276 176l121 545l-121 545h127l119 -545l-119 -545h-127z" />
<glyph unicode="&#xbf;" horiz-adv-x="495" d="M43 238q0 84 22.5 148.5t49 137t49 164.5t22.5 230v137h107v-137q0 -113 -21.5 -203t-48 -168t-48 -151.5t-21.5 -157.5q0 -66 16 -103t76 -37q70 0 86 56.5t16 158.5h105v-57q0 -49 -10.5 -97t-35 -86t-64.5 -61.5t-97 -23.5q-49 0 -87 20.5t-63.5 55t-39 79.5t-13.5 95 zM176 1249v185h127v-185h-127z" />
<glyph unicode="&#xc0;" d="M0 1745h164l166 -184h-107zM27 0l190 1434h125l190 -1434h-126l-50 379h-166l-40 -379h-123zM211 494h135l-67 624z" />
<glyph unicode="&#xc1;" d="M27 0l190 1434h125l190 -1434h-126l-50 379h-166l-40 -379h-123zM156 1561l163 184h164l-223 -184h-104zM211 494h135l-67 624z" />
<glyph unicode="&#xc2;" d="M27 0l190 1434h125l190 -1434h-126l-50 379h-166l-40 -379h-123zM31 1561l188 184h121l188 -184h-131l-118 102l-117 -102h-131zM211 494h135l-67 624z" />
<glyph unicode="&#xc3;" d="M27 0l190 1434h125l190 -1434h-126l-50 379h-166l-40 -379h-123zM53 1583q0 74 41 118t88 44q35 0 58.5 -9.5t43 -21.5t37 -21.5t37.5 -9.5q18 0 34 16.5t16 45.5h98q0 -37 -11.5 -66.5t-30 -51t-42 -33t-45.5 -11.5q-27 0 -50.5 10.5t-44 21.5t-41 21.5t-40.5 10.5 q-18 0 -34.5 -17.5t-16.5 -46.5h-97zM211 494h135l-67 624z" />
<glyph unicode="&#xc4;" d="M27 0l190 1434h125l190 -1434h-126l-50 379h-166l-40 -379h-123zM57 1561v184h127v-184h-127zM211 494h135l-67 624zM375 1561v184h127v-184h-127z" />
<glyph unicode="&#xc5;" d="M27 0l190 1434h125l190 -1434h-126l-50 379h-166l-40 -379h-123zM158 1622q0 51 35 87t86 36q47 0 84.5 -36t37.5 -87t-36.5 -84t-85.5 -33q-51 0 -86 35t-35 82zM211 494h135l-67 624zM215 1622q0 -23 18.5 -43t45.5 -20q29 0 47 18t18 45q0 31 -18 49.5t-47 18.5 q-27 0 -45.5 -21.5t-18.5 -46.5z" />
<glyph unicode="&#xc6;" horiz-adv-x="868" d="M29 0l346 1434h456v-131h-262v-459h195v-131h-195v-582h262v-131h-387v375h-200l-90 -375h-125zM268 492h176v733z" />
<glyph unicode="&#xc7;" d="M70 340v745q0 59 5 123t26.5 117t63.5 87t114 34q80 0 121.5 -34t62 -87t23.5 -116.5t3 -123.5v-135h-127v170q0 29 -1 66t-9 70.5t-25.5 56t-47.5 22.5q-31 0 -47.5 -22.5t-24.5 -56t-9 -70.5t-1 -66v-815q0 -29 1 -65.5t9 -70.5t24.5 -56.5t47.5 -22.5t48 22.5t25 56.5 t9 70.5t1 65.5v213h127v-178q0 -55 -5 -114.5t-22.5 -109.5t-51 -87t-93.5 -45v-56q49 0 66.5 -28.5t17.5 -94.5t-29.5 -94t-80.5 -28q-35 0 -55.5 10t-31.5 25.5t-15.5 33t-4.5 33.5h64q0 -20 12 -33.5t31 -13.5q29 0 40 16.5t11 50.5q0 39 -10 54.5t-39 15.5h-39v107 q-63 6 -100 41.5t-55.5 87t-23.5 112t-5 117.5z" />
<glyph unicode="&#xc8;" horiz-adv-x="466" d="M0 1745h164l166 -184h-107zM49 0v1434h389v-127h-262v-494h201v-127h-201v-559h262v-127h-389z" />
<glyph unicode="&#xc9;" horiz-adv-x="466" d="M49 0v1434h389v-127h-262v-494h201v-127h-201v-559h262v-127h-389zM156 1561l163 184h164l-223 -184h-104z" />
<glyph unicode="&#xca;" horiz-adv-x="466" d="M31 1561l188 184h121l188 -184h-131l-118 102l-117 -102h-131zM49 0v1434h389v-127h-262v-494h201v-127h-201v-559h262v-127h-389z" />
<glyph unicode="&#xcb;" horiz-adv-x="466" d="M49 0v1434h389v-127h-262v-494h201v-127h-201v-559h262v-127h-389zM57 1561v184h127v-184h-127zM375 1561v184h127v-184h-127z" />
<glyph unicode="&#xcc;" horiz-adv-x="225" d="M-184 1745h164l165 -184h-106zM49 0v1434h127v-1434h-127z" />
<glyph unicode="&#xcd;" horiz-adv-x="225" d="M49 0v1434h127v-1434h-127zM70 1561l163 184h164l-223 -184h-104z" />
<glyph unicode="&#xce;" horiz-adv-x="225" d="M-135 1561l188 184h121l188 -184h-131l-118 102l-117 -102h-131zM49 0v1434h127v-1434h-127z" />
<glyph unicode="&#xcf;" horiz-adv-x="225" d="M-47 1561v184h127v-184h-127zM49 0v1434h127v-1434h-127zM147 1561v184h127v-184h-127z" />
<glyph unicode="&#xd0;" horiz-adv-x="522" d="M0 686v127h49v621h74q57 0 116.5 -5.5t109.5 -27t84 -64.5t38 -116q2 -31 2 -63v-62v-822q0 -66 -14.5 -125t-67.5 -104q-35 -31 -80 -38t-92 -7h-170v686h-49zM176 115h23q51 0 79.5 18.5t44 49t19.5 69.5t4 78v798q0 35 -3 68t-16.5 60.5t-39 44t-68.5 16.5h-43v-504 h111v-127h-111v-571z" />
<glyph unicode="&#xd1;" horiz-adv-x="579" d="M49 0v1434h129l225 -904v904h125v-1434h-100l-252 1059v-1059h-127zM63 1583q0 74 41 118t89 44q35 0 58 -9.5t42.5 -21.5t37 -21.5t38.5 -9.5q18 0 33.5 16.5t15.5 45.5h98q0 -37 -11 -66.5t-29.5 -51t-42 -33t-46.5 -11.5q-27 0 -50.5 10.5t-44 21.5t-41 21.5 t-40.5 10.5q-18 0 -34.5 -17.5t-16.5 -46.5h-97z" />
<glyph unicode="&#xd2;" d="M0 1745h164l166 -184h-107zM57 340v745q0 59 7.5 123t31 117t67.5 87t116 34q74 0 117.5 -34t67 -87t31 -116.5t7.5 -123.5v-745q0 -59 -7.5 -122.5t-31 -117t-67.5 -87t-117 -33.5q-72 0 -116 33.5t-67.5 87t-31 117t-7.5 122.5zM184 305q0 -29 1 -65.5t10.5 -70.5 t29 -56.5t54.5 -22.5q37 0 56 22.5t28.5 56.5t10.5 70.5t1 65.5v815q0 29 -1 66t-10.5 70.5t-29 56t-55.5 22.5q-35 0 -54.5 -22.5t-29 -56t-10.5 -70.5t-1 -66v-815z" />
<glyph unicode="&#xd3;" d="M57 340v745q0 59 7.5 123t31 117t67.5 87t116 34q74 0 117.5 -34t67 -87t31 -116.5t7.5 -123.5v-745q0 -59 -7.5 -122.5t-31 -117t-67.5 -87t-117 -33.5q-72 0 -116 33.5t-67.5 87t-31 117t-7.5 122.5zM184 305q0 -29 1 -65.5t10.5 -70.5t29 -56.5t54.5 -22.5 q37 0 56 22.5t28.5 56.5t10.5 70.5t1 65.5v815q0 29 -1 66t-10.5 70.5t-29 56t-55.5 22.5q-35 0 -54.5 -22.5t-29 -56t-10.5 -70.5t-1 -66v-815zM238 1561l163 184h164l-223 -184h-104z" />
<glyph unicode="&#xd4;" d="M31 1561l188 184h121l188 -184h-131l-118 102l-117 -102h-131zM57 340v745q0 59 7.5 123t31 117t67.5 87t116 34q74 0 117.5 -34t67 -87t31 -116.5t7.5 -123.5v-745q0 -59 -7.5 -122.5t-31 -117t-67.5 -87t-117 -33.5q-72 0 -116 33.5t-67.5 87t-31 117t-7.5 122.5z M184 305q0 -29 1 -65.5t10.5 -70.5t29 -56.5t54.5 -22.5q37 0 56 22.5t28.5 56.5t10.5 70.5t1 65.5v815q0 29 -1 66t-10.5 70.5t-29 56t-55.5 22.5q-35 0 -54.5 -22.5t-29 -56t-10.5 -70.5t-1 -66v-815z" />
<glyph unicode="&#xd5;" d="M53 1583q0 74 41 118t88 44q35 0 58.5 -9.5t43 -21.5t37 -21.5t37.5 -9.5q18 0 34 16.5t16 45.5h98q0 -37 -11.5 -66.5t-30 -51t-42 -33t-45.5 -11.5q-27 0 -50.5 10.5t-44 21.5t-41 21.5t-40.5 10.5q-18 0 -34.5 -17.5t-16.5 -46.5h-97zM57 340v745q0 59 7.5 123t31 117 t67.5 87t116 34q74 0 117.5 -34t67 -87t31 -116.5t7.5 -123.5v-745q0 -59 -7.5 -122.5t-31 -117t-67.5 -87t-117 -33.5q-72 0 -116 33.5t-67.5 87t-31 117t-7.5 122.5zM184 305q0 -29 1 -65.5t10.5 -70.5t29 -56.5t54.5 -22.5q37 0 56 22.5t28.5 56.5t10.5 70.5t1 65.5v815 q0 29 -1 66t-10.5 70.5t-29 56t-55.5 22.5q-35 0 -54.5 -22.5t-29 -56t-10.5 -70.5t-1 -66v-815z" />
<glyph unicode="&#xd6;" d="M57 340v745q0 59 7.5 123t31 117t67.5 87t116 34q74 0 117.5 -34t67 -87t31 -116.5t7.5 -123.5v-745q0 -59 -7.5 -122.5t-31 -117t-67.5 -87t-117 -33.5q-72 0 -116 33.5t-67.5 87t-31 117t-7.5 122.5zM57 1561v184h127v-184h-127zM184 305q0 -29 1 -65.5t10.5 -70.5 t29 -56.5t54.5 -22.5q37 0 56 22.5t28.5 56.5t10.5 70.5t1 65.5v815q0 29 -1 66t-10.5 70.5t-29 56t-55.5 22.5q-35 0 -54.5 -22.5t-29 -56t-10.5 -70.5t-1 -66v-815zM375 1561v184h127v-184h-127z" />
<glyph unicode="&#xd8;" d="M29 -12l49 164q-12 45 -16.5 93t-4.5 95v745q0 59 7.5 123t31 117t67.5 87t116 34q59 0 99 -23.5t66 -64.5l31 100l57 -20l-51 -168q10 -45 15.5 -92.5t5.5 -92.5v-745q0 -59 -7.5 -122.5t-31 -117t-67.5 -87t-117 -33.5q-59 0 -99.5 22.5t-64.5 60.5l-29 -96zM184 291 q0 -29 2 -63.5t11.5 -65.5t29 -51.5t52.5 -20.5q37 0 56 22.5t28.5 56.5t10.5 70.5t1 65.5v613zM184 502l191 626q0 29 -2 65t-11.5 67.5t-29 53t-53.5 21.5q-35 0 -54.5 -22.5t-29 -56t-10.5 -70.5t-1 -66v-618z" />
<glyph unicode="&#xd9;" d="M0 1745h164l166 -184h-107zM57 340v1094h127v-1129q0 -29 1 -65.5t10.5 -70.5t29 -56.5t54.5 -22.5q37 0 56 22.5t28.5 56.5t10.5 70.5t1 65.5v1129h127v-1094q0 -59 -7.5 -122.5t-31 -117t-67.5 -87t-117 -33.5q-72 0 -116 33.5t-67.5 87t-31 117t-7.5 122.5z" />
<glyph unicode="&#xda;" d="M57 340v1094h127v-1129q0 -29 1 -65.5t10.5 -70.5t29 -56.5t54.5 -22.5q37 0 56 22.5t28.5 56.5t10.5 70.5t1 65.5v1129h127v-1094q0 -59 -7.5 -122.5t-31 -117t-67.5 -87t-117 -33.5q-72 0 -116 33.5t-67.5 87t-31 117t-7.5 122.5zM217 1561l164 184h164l-223 -184h-105 z" />
<glyph unicode="&#xdb;" d="M31 1561l188 184h121l188 -184h-131l-118 102l-117 -102h-131zM57 340v1094h127v-1129q0 -29 1 -65.5t10.5 -70.5t29 -56.5t54.5 -22.5q37 0 56 22.5t28.5 56.5t10.5 70.5t1 65.5v1129h127v-1094q0 -59 -7.5 -122.5t-31 -117t-67.5 -87t-117 -33.5q-72 0 -116 33.5 t-67.5 87t-31 117t-7.5 122.5z" />
<glyph unicode="&#xdc;" d="M57 340v1094h127v-1129q0 -29 1 -65.5t10.5 -70.5t29 -56.5t54.5 -22.5q37 0 56 22.5t28.5 56.5t10.5 70.5t1 65.5v1129h127v-1094q0 -59 -7.5 -122.5t-31 -117t-67.5 -87t-117 -33.5q-72 0 -116 33.5t-67.5 87t-31 117t-7.5 122.5zM57 1561v184h127v-184h-127zM375 1561 v184h127v-184h-127z" />
<glyph unicode="&#xdd;" horiz-adv-x="516" d="M27 1434h116l119 -637l111 637h116l-165 -826v-608h-123v608zM156 1561l163 184h164l-223 -184h-104z" />
<glyph unicode="&#xde;" horiz-adv-x="516" d="M49 0v1434h127v-308q106 0 165.5 -26.5t89.5 -74.5t36 -116.5t6 -152.5q0 -92 -4 -171t-26.5 -137.5t-73 -91t-140.5 -32.5h-53v-324h-127zM176 436h43q47 0 75 16.5t42 53.5t17 98.5t3 151.5q0 76 -3 125t-19.5 78.5t-53 42t-104.5 12.5v-578z" />
<glyph unicode="&#xdf;" horiz-adv-x="1034" d="M39 328v86h127v-92q0 -45 3 -87t14.5 -75t29.5 -51.5t49 -18.5q35 0 54.5 23.5t30.5 57.5t14.5 69.5t3.5 60.5q0 90 -24 160.5t-58.5 131t-75.5 117t-76 119t-58.5 138t-23.5 174.5q0 55 10.5 109.5t34 98.5t63.5 70.5t99 26.5t100 -27.5t65.5 -73t35 -102.5t10.5 -117 v-84h-127v76q0 37 -2 75t-11.5 69.5t-25.5 52t-45 20.5t-45 -23.5t-23.5 -55t-9.5 -64.5t-2 -51q0 -80 22.5 -144.5t57.5 -123t74 -115t73.5 -120t57 -140t22.5 -176.5q0 -61 -9 -123t-33.5 -110t-67.5 -78.5t-111 -30.5q-74 0 -118 32.5t-67.5 83.5t-30.5 112.5t-7 119.5z M557 328v86h127v-92q0 -45 3 -87t14.5 -75t30 -51.5t48.5 -18.5q35 0 54.5 23.5t31 57.5t14.5 69.5t3 60.5q0 90 -23.5 160.5t-58.5 131t-76 117t-76 119t-58.5 138t-23.5 174.5q0 55 10.5 109.5t34 98.5t63.5 70.5t99 26.5t100 -27.5t66 -73t35 -102.5t10 -117v-84h-127v76 q0 37 -2 75t-11 69.5t-25.5 52t-45.5 20.5t-45 -23.5t-23.5 -55t-9.5 -64.5t-2 -51q0 -80 22.5 -144.5t57.5 -123t74 -115t73.5 -120t57 -140t22.5 -176.5q0 -61 -9 -123t-33.5 -110t-67.5 -78.5t-111 -30.5q-74 0 -118 32.5t-67.5 83.5t-30.5 112.5t-7 119.5z" />
<glyph unicode="&#xe0;" horiz-adv-x="552" d="M0 1745h164l166 -184h-107zM49 0v1120q0 63 5 123t26.5 105t65.5 71.5t124 26.5t124 -26.5t65.5 -71.5t27 -104.5t5.5 -123.5v-1120h-125v686h-191v-686h-127zM176 813h189v324q0 37 -1.5 72.5t-10.5 63t-28.5 45t-54.5 17.5t-54 -17.5t-28.5 -45t-10.5 -63t-1 -72.5 v-324z" />
<glyph unicode="&#xe1;" horiz-adv-x="552" d="M49 0v1120q0 63 5 123t26.5 105t65.5 71.5t124 26.5t124 -26.5t65.5 -71.5t27 -104.5t5.5 -123.5v-1120h-125v686h-191v-686h-127zM156 1561l163 184h164l-223 -184h-104zM176 813h189v324q0 37 -1.5 72.5t-10.5 63t-28.5 45t-54.5 17.5t-54 -17.5t-28.5 -45t-10.5 -63 t-1 -72.5v-324z" />
<glyph unicode="&#xe2;" horiz-adv-x="552" d="M31 1561l188 184h121l188 -184h-131l-118 102l-117 -102h-131zM49 0v1120q0 63 5 123t26.5 105t65.5 71.5t124 26.5t124 -26.5t65.5 -71.5t27 -104.5t5.5 -123.5v-1120h-125v686h-191v-686h-127zM176 813h189v324q0 37 -1.5 72.5t-10.5 63t-28.5 45t-54.5 17.5t-54 -17.5 t-28.5 -45t-10.5 -63t-1 -72.5v-324z" />
<glyph unicode="&#xe3;" horiz-adv-x="552" d="M49 0v1120q0 63 5 123t26.5 105t65.5 71.5t124 26.5t124 -26.5t65.5 -71.5t27 -104.5t5.5 -123.5v-1120h-125v686h-191v-686h-127zM53 1583q0 74 41 118t88 44q35 0 58.5 -9.5t43 -21.5t37 -21.5t37.5 -9.5q18 0 34 16.5t16 45.5h98q0 -37 -11.5 -66.5t-30 -51t-42 -33 t-45.5 -11.5q-27 0 -50.5 10.5t-44 21.5t-41 21.5t-40.5 10.5q-18 0 -34.5 -17.5t-16.5 -46.5h-97zM176 813h189v324q0 37 -1.5 72.5t-10.5 63t-28.5 45t-54.5 17.5t-54 -17.5t-28.5 -45t-10.5 -63t-1 -72.5v-324z" />
<glyph unicode="&#xe4;" horiz-adv-x="552" d="M49 0v1120q0 63 5 123t26.5 105t65.5 71.5t124 26.5t124 -26.5t65.5 -71.5t27 -104.5t5.5 -123.5v-1120h-125v686h-191v-686h-127zM57 1561v184h127v-184h-127zM176 813h189v324q0 37 -1.5 72.5t-10.5 63t-28.5 45t-54.5 17.5t-54 -17.5t-28.5 -45t-10.5 -63t-1 -72.5 v-324zM375 1561v184h127v-184h-127z" />
<glyph unicode="&#xe5;" horiz-adv-x="552" d="M49 0v1120q0 63 5 123t26.5 105t65.5 71.5t124 26.5t124 -26.5t65.5 -71.5t27 -104.5t5.5 -123.5v-1120h-125v686h-191v-686h-127zM158 1622q0 51 35 87t86 36q47 0 84.5 -36t37.5 -87t-36.5 -84t-85.5 -33q-51 0 -86 35t-35 82zM176 813h189v324q0 37 -1.5 72.5 t-10.5 63t-28.5 45t-54.5 17.5t-54 -17.5t-28.5 -45t-10.5 -63t-1 -72.5v-324zM215 1622q0 -23 18.5 -43t45.5 -20q29 0 47 18t18 45q0 31 -18 49.5t-47 18.5q-27 0 -45.5 -21.5t-18.5 -46.5z" />
<glyph unicode="&#xe6;" horiz-adv-x="782" d="M49 0v1120q0 63 5 123t26.5 105t65.5 71.5t124 26.5q57 0 90 -12h394v-127h-262v-494h200v-127h-200v-559h262v-127h-389v686h-189v-686h-127zM176 813h189v375q0 59 -17.5 103t-77.5 44q-35 0 -54 -17.5t-28.5 -45t-10.5 -63t-1 -72.5v-324z" />
<glyph unicode="&#xe7;" d="M70 340v745q0 59 5 123t26.5 117t63.5 87t114 34q80 0 121.5 -34t62 -87t23.5 -116.5t3 -123.5v-135h-127v170q0 29 -1 66t-9 70.5t-25.5 56t-47.5 22.5q-31 0 -47.5 -22.5t-24.5 -56t-9 -70.5t-1 -66v-815q0 -29 1 -65.5t9 -70.5t24.5 -56.5t47.5 -22.5t48 22.5t25 56.5 t9 70.5t1 65.5v213h127v-178q0 -55 -5 -114.5t-22.5 -109.5t-51 -87t-93.5 -45v-56q49 0 66.5 -28.5t17.5 -94.5t-29.5 -94t-80.5 -28q-35 0 -55.5 10t-31.5 25.5t-15.5 33t-4.5 33.5h64q0 -20 12 -33.5t31 -13.5q29 0 40 16.5t11 50.5q0 39 -10 54.5t-39 15.5h-39v107 q-63 6 -100 41.5t-55.5 87t-23.5 112t-5 117.5z" />
<glyph unicode="&#xe8;" horiz-adv-x="466" d="M0 1745h164l166 -184h-107zM49 0v1434h389v-127h-262v-494h201v-127h-201v-559h262v-127h-389z" />
<glyph unicode="&#xe9;" horiz-adv-x="466" d="M49 0v1434h389v-127h-262v-494h201v-127h-201v-559h262v-127h-389zM156 1561l163 184h164l-223 -184h-104z" />
<glyph unicode="&#xea;" horiz-adv-x="466" d="M31 1561l188 184h121l188 -184h-131l-118 102l-117 -102h-131zM49 0v1434h389v-127h-262v-494h201v-127h-201v-559h262v-127h-389z" />
<glyph unicode="&#xeb;" horiz-adv-x="466" d="M49 0v1434h389v-127h-262v-494h201v-127h-201v-559h262v-127h-389zM49 1561v184h127v-184h-127zM311 1561v184h127v-184h-127z" />
<glyph unicode="&#xec;" horiz-adv-x="225" d="M-174 1745h164l166 -184h-107zM49 0v1434h127v-1434h-127z" />
<glyph unicode="&#xed;" horiz-adv-x="225" d="M49 0v1434h127v-1434h-127zM70 1561l163 184h164l-223 -184h-104z" />
<glyph unicode="&#xee;" horiz-adv-x="225" d="M-135 1561l188 184h121l188 -184h-131l-118 102l-117 -102h-131zM49 0v1434h127v-1434h-127z" />
<glyph unicode="&#xef;" horiz-adv-x="225" d="M-68 1561v184h127v-184h-127zM49 0v1434h127v-1434h-127zM164 1561v184h127v-184h-127z" />
<glyph unicode="&#xf0;" horiz-adv-x="522" d="M0 686v127h49v621h74q57 0 116.5 -5.5t109.5 -27t84 -64.5t38 -116q2 -31 2 -63v-62v-822q0 -66 -14.5 -125t-67.5 -104q-35 -31 -80 -38t-92 -7h-170v686h-49zM176 115h23q51 0 79.5 18.5t44 49t19.5 69.5t4 78v798q0 35 -3 68t-16.5 60.5t-39 44t-68.5 16.5h-43v-504 h111v-127h-111v-571z" />
<glyph unicode="&#xf1;" horiz-adv-x="550" d="M49 0v1434h139q39 0 82 -7.5t84 -22.5t74 -42t49 -64q18 -39 21.5 -88t3.5 -96v-1114h-127v1087q0 59 -6.5 102.5t-26.5 72t-59 43t-107 14.5v-1319h-127zM53 1583q0 74 41 118t88 44q35 0 58.5 -9.5t43 -21.5t37 -21.5t37.5 -9.5q18 0 34 16.5t16 45.5h98 q0 -37 -11.5 -66.5t-30 -51t-42 -33t-45.5 -11.5q-27 0 -50.5 10.5t-44 21.5t-41 21.5t-40.5 10.5q-18 0 -34.5 -17.5t-16.5 -46.5h-97z" />
<glyph unicode="&#xf2;" horiz-adv-x="552" d="M0 1745h164l166 -184h-107zM49 340v745q0 59 7 123t31 117t68 87t115 34q74 0 118 -34t67.5 -87t31 -116.5t7.5 -123.5v-745q0 -59 -7.5 -122.5t-31 -117t-67.5 -87t-118 -33.5q-72 0 -115.5 33.5t-67.5 87t-31 117t-7 122.5zM176 305q0 -29 1 -65.5t10.5 -70.5t29 -56.5 t53.5 -22.5q37 0 56.5 22.5t29 56.5t10.5 70.5t1 65.5v815q0 29 -1 66t-10.5 70.5t-29 56t-56.5 22.5q-35 0 -54 -22.5t-28.5 -56t-10.5 -70.5t-1 -66v-815z" />
<glyph unicode="&#xf3;" horiz-adv-x="552" d="M49 340v745q0 59 7 123t31 117t68 87t115 34q74 0 118 -34t67.5 -87t31 -116.5t7.5 -123.5v-745q0 -59 -7.5 -122.5t-31 -117t-67.5 -87t-118 -33.5q-72 0 -115.5 33.5t-67.5 87t-31 117t-7 122.5zM156 1561l163 184h164l-223 -184h-104zM176 305q0 -29 1 -65.5 t10.5 -70.5t29 -56.5t53.5 -22.5q37 0 56.5 22.5t29 56.5t10.5 70.5t1 65.5v815q0 29 -1 66t-10.5 70.5t-29 56t-56.5 22.5q-35 0 -54 -22.5t-28.5 -56t-10.5 -70.5t-1 -66v-815z" />
<glyph unicode="&#xf4;" horiz-adv-x="552" d="M31 1561l188 184h121l188 -184h-131l-118 102l-117 -102h-131zM49 340v745q0 59 7 123t31 117t68 87t115 34q74 0 118 -34t67.5 -87t31 -116.5t7.5 -123.5v-745q0 -59 -7.5 -122.5t-31 -117t-67.5 -87t-118 -33.5q-72 0 -115.5 33.5t-67.5 87t-31 117t-7 122.5zM176 305 q0 -29 1 -65.5t10.5 -70.5t29 -56.5t53.5 -22.5q37 0 56.5 22.5t29 56.5t10.5 70.5t1 65.5v815q0 29 -1 66t-10.5 70.5t-29 56t-56.5 22.5q-35 0 -54 -22.5t-28.5 -56t-10.5 -70.5t-1 -66v-815z" />
<glyph unicode="&#xf5;" horiz-adv-x="552" d="M49 340v745q0 59 7 123t31 117t68 87t115 34q74 0 118 -34t67.5 -87t31 -116.5t7.5 -123.5v-745q0 -59 -7.5 -122.5t-31 -117t-67.5 -87t-118 -33.5q-72 0 -115.5 33.5t-67.5 87t-31 117t-7 122.5zM53 1583q0 74 41 118t88 44q35 0 58.5 -9.5t43 -21.5t37 -21.5 t37.5 -9.5q18 0 34 16.5t16 45.5h98q0 -37 -11.5 -66.5t-30 -51t-42 -33t-45.5 -11.5q-27 0 -50.5 10.5t-44 21.5t-41 21.5t-40.5 10.5q-18 0 -34.5 -17.5t-16.5 -46.5h-97zM176 305q0 -29 1 -65.5t10.5 -70.5t29 -56.5t53.5 -22.5q37 0 56.5 22.5t29 56.5t10.5 70.5t1 65.5 v815q0 29 -1 66t-10.5 70.5t-29 56t-56.5 22.5q-35 0 -54 -22.5t-28.5 -56t-10.5 -70.5t-1 -66v-815z" />
<glyph unicode="&#xf6;" horiz-adv-x="552" d="M49 340v745q0 59 7 123t31 117t68 87t115 34q74 0 118 -34t67.5 -87t31 -116.5t7.5 -123.5v-745q0 -59 -7.5 -122.5t-31 -117t-67.5 -87t-118 -33.5q-72 0 -115.5 33.5t-67.5 87t-31 117t-7 122.5zM57 1561v184h127v-184h-127zM176 305q0 -29 1 -65.5t10.5 -70.5 t29 -56.5t53.5 -22.5q37 0 56.5 22.5t29 56.5t10.5 70.5t1 65.5v815q0 29 -1 66t-10.5 70.5t-29 56t-56.5 22.5q-35 0 -54 -22.5t-28.5 -56t-10.5 -70.5t-1 -66v-815zM375 1561v184h127v-184h-127z" />
<glyph unicode="&#xf7;" d="M0 686v127h559v-127h-559zM215 375v184h127v-184h-127zM215 940v184h127v-184h-127z" />
<glyph unicode="&#xf8;" d="M29 -12l49 164q-12 45 -16.5 93t-4.5 95v745q0 59 7.5 123t31 117t67.5 87t116 34q59 0 99 -23.5t66 -64.5l31 100l57 -20l-51 -168q10 -45 15.5 -92.5t5.5 -92.5v-745q0 -59 -7.5 -122.5t-31 -117t-67.5 -87t-117 -33.5q-59 0 -99.5 22.5t-64.5 60.5l-29 -96zM184 291 q0 -29 2 -63.5t11.5 -65.5t29 -51.5t52.5 -20.5q37 0 56 22.5t28.5 56.5t10.5 70.5t1 65.5v613zM184 502l191 626q0 29 -2 65t-11.5 67.5t-29 53t-53.5 21.5q-35 0 -54.5 -22.5t-29 -56t-10.5 -70.5t-1 -66v-618z" />
<glyph unicode="&#xf9;" d="M0 1745h164l166 -184h-107zM57 340v1094h127v-1129q0 -29 1 -65.5t10.5 -70.5t29 -56.5t54.5 -22.5q37 0 56 22.5t28.5 56.5t10.5 70.5t1 65.5v1129h127v-1094q0 -59 -7.5 -122.5t-31 -117t-67.5 -87t-117 -33.5q-72 0 -116 33.5t-67.5 87t-31 117t-7.5 122.5z" />
<glyph unicode="&#xfa;" d="M57 340v1094h127v-1129q0 -29 1 -65.5t10.5 -70.5t29 -56.5t54.5 -22.5q37 0 56 22.5t28.5 56.5t10.5 70.5t1 65.5v1129h127v-1094q0 -59 -7.5 -122.5t-31 -117t-67.5 -87t-117 -33.5q-72 0 -116 33.5t-67.5 87t-31 117t-7.5 122.5zM156 1561l163 184h164l-223 -184h-104 z" />
<glyph unicode="&#xfb;" d="M31 1561l188 184h121l188 -184h-131l-118 102l-117 -102h-131zM57 340v1094h127v-1129q0 -29 1 -65.5t10.5 -70.5t29 -56.5t54.5 -22.5q37 0 56 22.5t28.5 56.5t10.5 70.5t1 65.5v1129h127v-1094q0 -59 -7.5 -122.5t-31 -117t-67.5 -87t-117 -33.5q-72 0 -116 33.5 t-67.5 87t-31 117t-7.5 122.5z" />
<glyph unicode="&#xfc;" d="M57 340v1094h127v-1129q0 -29 1 -65.5t10.5 -70.5t29 -56.5t54.5 -22.5q37 0 56 22.5t28.5 56.5t10.5 70.5t1 65.5v1129h127v-1094q0 -59 -7.5 -122.5t-31 -117t-67.5 -87t-117 -33.5q-72 0 -116 33.5t-67.5 87t-31 117t-7.5 122.5zM57 1561v184h127v-184h-127zM375 1561 v184h127v-184h-127z" />
<glyph unicode="&#xfd;" horiz-adv-x="516" d="M27 1434h116l119 -637l111 637h116l-165 -826v-608h-123v608zM156 1561l163 184h164l-223 -184h-104z" />
<glyph unicode="&#xfe;" horiz-adv-x="516" d="M49 0v1434h127v-308q106 0 165.5 -26.5t89.5 -74.5t36 -116.5t6 -152.5q0 -92 -4 -171t-26.5 -137.5t-73 -91t-140.5 -32.5h-53v-324h-127zM176 436h43q47 0 75 16.5t42 53.5t17 98.5t3 151.5q0 76 -3 125t-19.5 78.5t-53 42t-104.5 12.5v-578z" />
<glyph unicode="&#xff;" horiz-adv-x="516" d="M27 1434h116l119 -637l111 637h116l-165 -826v-608h-123v608zM41 1561v184h127v-184h-127zM358 1561v184h127v-184h-127z" />
<glyph unicode="&#x152;" horiz-adv-x="790" d="M57 340v745q0 59 7.5 123t31 117t67.5 87t116 34q29 0 52 -4t44 -8h389v-127h-262v-494h198v-127h-198v-567h262v-119h-389q-45 -20 -96 -20q-72 0 -116 33.5t-67.5 87t-31 117t-7.5 122.5zM184 305q0 -29 1 -65.5t10.5 -70.5t29 -56.5t54.5 -22.5q37 0 56 22.5 t28.5 56.5t10.5 70.5t1 65.5v858q0 29 -4 59.5t-14.5 55.5t-30 41t-47.5 16q-35 0 -54.5 -22.5t-29 -56t-10.5 -70.5t-1 -66v-815z" />
<glyph unicode="&#x153;" horiz-adv-x="790" d="M57 340v745q0 59 7.5 123t31 117t67.5 87t116 34q29 0 52 -4t44 -8h389v-127h-262v-494h198v-127h-198v-567h262v-119h-389q-45 -20 -96 -20q-72 0 -116 33.5t-67.5 87t-31 117t-7.5 122.5zM184 305q0 -29 1 -65.5t10.5 -70.5t29 -56.5t54.5 -22.5q37 0 56 22.5 t28.5 56.5t10.5 70.5t1 65.5v858q0 29 -4 59.5t-14.5 55.5t-30 41t-47.5 16q-35 0 -54.5 -22.5t-29 -56t-10.5 -70.5t-1 -66v-815z" />
<glyph unicode="&#x178;" horiz-adv-x="516" d="M27 1434h116l119 -637l111 637h116l-165 -826v-608h-123v608zM41 1561v184h127v-184h-127zM358 1561v184h127v-184h-127z" />
<glyph unicode="&#x2c6;" d="M31 1561l188 184h121l188 -184h-131l-118 102l-117 -102h-131z" />
<glyph unicode="&#x2dc;" d="M53 1583q0 74 41 118t88 44q35 0 58.5 -9.5t43 -21.5t37 -21.5t37.5 -9.5q18 0 34 16.5t16 45.5h98q0 -37 -11.5 -66.5t-30 -51t-42 -33t-45.5 -11.5q-27 0 -50.5 10.5t-44 21.5t-41 21.5t-40.5 10.5q-18 0 -34.5 -17.5t-16.5 -46.5h-97z" />
<glyph unicode="&#x2000;" horiz-adv-x="872" />
<glyph unicode="&#x2001;" horiz-adv-x="1745" />
<glyph unicode="&#x2002;" horiz-adv-x="872" />
<glyph unicode="&#x2003;" horiz-adv-x="1745" />
<glyph unicode="&#x2004;" horiz-adv-x="581" />
<glyph unicode="&#x2005;" horiz-adv-x="436" />
<glyph unicode="&#x2006;" horiz-adv-x="290" />
<glyph unicode="&#x2007;" horiz-adv-x="290" />
<glyph unicode="&#x2008;" horiz-adv-x="218" />
<glyph unicode="&#x2009;" horiz-adv-x="349" />
<glyph unicode="&#x200a;" horiz-adv-x="96" />
<glyph unicode="&#x2010;" horiz-adv-x="286" d="M0 686v127h287v-127h-287z" />
<glyph unicode="&#x2011;" horiz-adv-x="286" d="M0 686v127h287v-127h-287z" />
<glyph unicode="&#x2012;" horiz-adv-x="286" d="M0 686v127h287v-127h-287z" />
<glyph unicode="&#x2013;" horiz-adv-x="415" d="M0 686v127h416v-127h-416z" />
<glyph unicode="&#x2014;" horiz-adv-x="829" d="M0 686v127h829v-127h-829z" />
<glyph unicode="&#x2018;" horiz-adv-x="165" d="M2 965v184l61 285h66l-57 -285h57v-184h-127z" />
<glyph unicode="&#x2019;" horiz-adv-x="163" d="M37 965l57 284h-57v185h127v-185l-64 -284h-63z" />
<glyph unicode="&#x201a;" horiz-adv-x="163" d="M37 0v184h127v-184l-64 -285h-63l57 285h-57z" />
<glyph unicode="&#x201c;" horiz-adv-x="339" d="M0 965v184l63 285h64l-57 -285h57v-184h-127zM174 965v184l64 285h63l-57 -285h57v-184h-127z" />
<glyph unicode="&#x201d;" horiz-adv-x="378" d="M41 965l57 284h-57v185h127v-185l-64 -284h-63zM215 965l57 284h-57v185h127v-185l-63 -284h-64z" />
<glyph unicode="&#x201e;" horiz-adv-x="378" d="M41 0v184h127v-184l-64 -285h-63l57 285h-57zM215 0v184h127v-184l-63 -285h-64l57 285h-57z" />
<glyph unicode="&#x2022;" horiz-adv-x="503" d="M31 725q0 47 17.5 87t47 69.5t70.5 47t86 17.5q47 0 87 -17.5t69.5 -47t47 -69.5t17.5 -87q0 -45 -17.5 -85t-47 -70.5t-69.5 -48t-87 -17.5q-45 0 -85 17.5t-70.5 47t-48 70.5t-17.5 86z" />
<glyph unicode="&#x2026;" horiz-adv-x="661" d="M29 0v184h127v-184h-127zM283 0v184h127v-184h-127zM537 0v184h127v-184h-127z" />
<glyph unicode="&#x202f;" horiz-adv-x="349" />
<glyph unicode="&#x2039;" horiz-adv-x="335" d="M45 721l119 543h127l-121 -543l121 -547h-127z" />
<glyph unicode="&#x203a;" horiz-adv-x="335" d="M45 176l121 545l-121 545h127l119 -545l-119 -545h-127z" />
<glyph unicode="&#x205f;" horiz-adv-x="436" />
<glyph unicode="&#x20ac;" d="M0 569v127h70v105h-70v127h70v157q0 59 5 123t26.5 117t63.5 87t114 34q80 0 121.5 -34t62 -87t23.5 -116.5t3 -123.5v-49h-127v84q0 29 -1 66t-9 70.5t-25.5 56t-47.5 22.5q-31 0 -47.5 -22.5t-24.5 -56t-9 -70.5t-1 -66v-192h221v-127h-221v-105h221v-127h-221v-264 q0 -29 1 -65.5t9 -70.5t24.5 -56.5t47.5 -22.5t48 22.5t25 56.5t9 70.5t1 65.5v127h127v-92q0 -59 -5 -122.5t-26.5 -117t-63.5 -87t-115 -33.5q-72 0 -114 33.5t-63.5 87t-26.5 117t-5 122.5v229h-70z" />
<glyph unicode="&#x2122;" horiz-adv-x="653" d="M29 1370v64h217v-64h-78v-653h-62v653h-77zM285 717v717h110l62 -443h2l55 443h113v-717h-64v647h-4l-80 -647h-37l-90 647h-4v-647h-63z" />
<glyph unicode="&#xe000;" horiz-adv-x="1433" d="M0 0v1434h1434v-1434h-1434z" />
<glyph unicode="&#xfb01;" horiz-adv-x="684" d="M49 0v1434h379v-127h-252v-494h201v-127h-201v-686h-127zM508 0v1434h127v-1434h-127z" />
<glyph unicode="&#xfb02;" horiz-adv-x="925" d="M49 0v1434h379v-127h-252v-494h201v-127h-201v-686h-127zM508 0v1434h127v-1307h262v-127h-389z" />
</font>
</defs>
</svg>
